<svg width="26" height="26" viewBox="0 0 26 26" fill="none" xmlns="http://www.w3.org/2000/svg">
<path fill-rule="evenodd" clip-rule="evenodd" d="M0.5 13C0.5 6.1 6.1 0.5 13 0.5C19.9 0.5 25.5 6.1 25.5 13C25.5 19.9 19.9 25.5 13 25.5C6.1 25.5 0.5 19.9 0.5 13ZM5.12499 13.875L9.61249 18.3625C10.1 18.85 10.9 18.85 11.375 18.3625L20.8625 8.87504C21.35 8.38754 21.35 7.60004 20.8625 7.11254C20.375 6.62504 19.5875 6.62504 19.1 7.11254L10.5 15.7125L6.88749 12.1125C6.39999 11.625 5.61249 11.625 5.12499 12.1125C4.89092 12.3461 4.75938 12.6631 4.75938 12.9938C4.75938 13.3244 4.89092 13.6415 5.12499 13.875Z" fill="#14679D"/>
</svg>
