<svg width="134" height="39" viewBox="0 0 134 39" fill="none" xmlns="http://www.w3.org/2000/svg">
<path d="M4.84 17.6C4.84 15.952 5.208 14.48 5.944 13.184C6.696 11.872 7.712 10.856 8.992 10.136C10.288 9.4 11.736 9.032 13.336 9.032C15.208 9.032 16.848 9.512 18.256 10.472C19.664 11.432 20.648 12.76 21.208 14.456H17.344C16.96 13.656 16.416 13.056 15.712 12.656C15.024 12.256 14.224 12.056 13.312 12.056C12.336 12.056 11.464 12.288 10.696 12.752C9.944 13.2 9.352 13.84 8.92 14.672C8.504 15.504 8.296 16.48 8.296 17.6C8.296 18.704 8.504 19.68 8.92 20.528C9.352 21.36 9.944 22.008 10.696 22.472C11.464 22.92 12.336 23.144 13.312 23.144C14.224 23.144 15.024 22.944 15.712 22.544C16.416 22.128 16.96 21.52 17.344 20.72H21.208C20.648 22.432 19.664 23.768 18.256 24.728C16.864 25.672 15.224 26.144 13.336 26.144C11.736 26.144 10.288 25.784 8.992 25.064C7.712 24.328 6.696 23.312 5.944 22.016C5.208 20.72 4.84 19.248 4.84 17.6ZM23.2139 19.304C23.2139 17.96 23.4779 16.768 24.0059 15.728C24.5499 14.688 25.2779 13.888 26.1899 13.328C27.1179 12.768 28.1499 12.488 29.2859 12.488C30.2779 12.488 31.1419 12.688 31.8779 13.088C32.6299 13.488 33.2299 13.992 33.6779 14.6V12.704H37.0619V26H33.6779V24.056C33.2459 24.68 32.6459 25.2 31.8779 25.616C31.1259 26.016 30.2539 26.216 29.2619 26.216C28.1419 26.216 27.1179 25.928 26.1899 25.352C25.2779 24.776 24.5499 23.968 24.0059 22.928C23.4779 21.872 23.2139 20.664 23.2139 19.304ZM33.6779 19.352C33.6779 18.536 33.5179 17.84 33.1979 17.264C32.8779 16.672 32.4459 16.224 31.9019 15.92C31.3579 15.6 30.7739 15.44 30.1499 15.44C29.5259 15.44 28.9499 15.592 28.4219 15.896C27.8939 16.2 27.4619 16.648 27.1259 17.24C26.8059 17.816 26.6459 18.504 26.6459 19.304C26.6459 20.104 26.8059 20.808 27.1259 21.416C27.4619 22.008 27.8939 22.464 28.4219 22.784C28.9659 23.104 29.5419 23.264 30.1499 23.264C30.7739 23.264 31.3579 23.112 31.9019 22.808C32.4459 22.488 32.8779 22.04 33.1979 21.464C33.5179 20.872 33.6779 20.168 33.6779 19.352ZM43.7035 14.768C44.1355 14.064 44.6955 13.512 45.3835 13.112C46.0875 12.712 46.8875 12.512 47.7835 12.512V16.04H46.8955C45.8395 16.04 45.0395 16.288 44.4955 16.784C43.9675 17.28 43.7035 18.144 43.7035 19.376V26H40.3435V12.704H43.7035V14.768Z" fill="black"/>
<path d="M58.6866 26L54.9906 19.472H53.4066V26H50.0466V9.248H56.3346C57.6306 9.248 58.7346 9.48 59.6466 9.944C60.5586 10.392 61.2386 11.008 61.6866 11.792C62.1506 12.56 62.3826 13.424 62.3826 14.384C62.3826 15.488 62.0626 16.488 61.4226 17.384C60.7826 18.264 59.8306 18.872 58.5666 19.208L62.5746 26H58.6866ZM53.4066 16.952H56.2146C57.1266 16.952 57.8066 16.736 58.2546 16.304C58.7026 15.856 58.9266 15.24 58.9266 14.456C58.9266 13.688 58.7026 13.096 58.2546 12.68C57.8066 12.248 57.1266 12.032 56.2146 12.032H53.4066V16.952ZM77.7816 19.064C77.7816 19.544 77.7496 19.976 77.6856 20.36H67.9656C68.0456 21.32 68.3816 22.072 68.9736 22.616C69.5656 23.16 70.2936 23.432 71.1576 23.432C72.4056 23.432 73.2936 22.896 73.8216 21.824H77.4456C77.0616 23.104 76.3256 24.16 75.2376 24.992C74.1496 25.808 72.8136 26.216 71.2296 26.216C69.9496 26.216 68.7976 25.936 67.7736 25.376C66.7656 24.8 65.9736 23.992 65.3976 22.952C64.8376 21.912 64.5576 20.712 64.5576 19.352C64.5576 17.976 64.8376 16.768 65.3976 15.728C65.9576 14.688 66.7416 13.888 67.7496 13.328C68.7576 12.768 69.9176 12.488 71.2296 12.488C72.4936 12.488 73.6216 12.76 74.6136 13.304C75.6216 13.848 76.3976 14.624 76.9416 15.632C77.5016 16.624 77.7816 17.768 77.7816 19.064ZM74.3016 18.104C74.2856 17.24 73.9736 16.552 73.3656 16.04C72.7576 15.512 72.0136 15.248 71.1336 15.248C70.3016 15.248 69.5976 15.504 69.0216 16.016C68.4616 16.512 68.1176 17.208 67.9896 18.104H74.3016ZM87.6021 12.512C89.1861 12.512 90.4661 13.016 91.4421 14.024C92.4181 15.016 92.9061 16.408 92.9061 18.2V26H89.5461V18.656C89.5461 17.6 89.2821 16.792 88.7541 16.232C88.2261 15.656 87.5061 15.368 86.5941 15.368C85.6661 15.368 84.9301 15.656 84.3861 16.232C83.8581 16.792 83.5941 17.6 83.5941 18.656V26H80.2341V12.704H83.5941V14.36C84.0421 13.784 84.6101 13.336 85.2981 13.016C86.0021 12.68 86.7701 12.512 87.6021 12.512ZM100.013 15.464V21.896C100.013 22.344 100.117 22.672 100.325 22.88C100.549 23.072 100.917 23.168 101.429 23.168H102.989V26H100.877C98.0453 26 96.6293 24.624 96.6293 21.872V15.464H95.0453V12.704H96.6293V9.416H100.013V12.704H102.989V15.464H100.013ZM107.11 11.12C106.518 11.12 106.022 10.936 105.622 10.568C105.238 10.184 105.046 9.712 105.046 9.152C105.046 8.592 105.238 8.128 105.622 7.76C106.022 7.376 106.518 7.184 107.11 7.184C107.702 7.184 108.19 7.376 108.574 7.76C108.974 8.128 109.174 8.592 109.174 9.152C109.174 9.712 108.974 10.184 108.574 10.568C108.19 10.936 107.702 11.12 107.11 11.12ZM108.766 12.704V26H105.406V12.704H108.766ZM118.182 15.464H115.854V26H112.446V15.464H110.934V12.704H112.446V12.032C112.446 10.4 112.91 9.2 113.838 8.432C114.766 7.664 116.166 7.304 118.038 7.352V10.184C117.222 10.168 116.654 10.304 116.334 10.592C116.014 10.88 115.854 11.4 115.854 12.152V12.704H118.182V15.464ZM133.079 12.704L124.847 32.288H121.271L124.151 25.664L118.823 12.704H122.591L126.023 21.992L129.503 12.704H133.079Z" fill="#F3494A"/>
<path d="M5.38428 35L0.384277 32.6132L0.384277 38.3868L5.38428 36V35ZM50.3843 35.5L45.3843 32.6132V38.3868L50.3843 35.5ZM4.88428 36H45.8843V35H4.88428V36Z" fill="#F14648"/>
</svg>
